<svg width="67" height="67" viewBox="0 0 67 67" fill="none" xmlns="http://www.w3.org/2000/svg">
<path d="M38.1799 39.3443C38.221 39.3699 38.2686 39.3835 38.3171 39.3835C38.3656 39.3835 38.4131 39.3699 38.4543 39.3443C45.6655 35.9392 52.4523 31.7001 58.6758 26.7137C60.6306 24.9998 61.8421 22.5927 62.0541 20.0016C61.7231 15.7628 59.7866 11.8102 56.6399 8.95078C49.3259 18.2214 43.1113 28.3086 38.1205 39.0105C38.1205 39.0105 38.0278 39.2256 38.1799 39.3443ZM66.2668 25.9832C66.2668 25.9832 48.8376 35.3356 39.8189 41.4395C39.7766 41.4774 39.7435 41.5246 39.7223 41.5773C39.7011 41.63 39.6923 41.6869 39.6966 41.7436C39.6966 41.7436 39.7893 41.8956 39.9117 41.8956C43.1305 41.8956 55.368 41.8956 55.6684 41.8659C56.8776 41.7744 58.0657 41.498 59.1913 41.0464C62.1335 39.8856 64.5078 37.6243 65.8106 34.7422C67.0159 31.9735 67.178 28.8621 66.2668 25.9832ZM60.8007 44.1132L40.2751 43.3715V43.4049C40.2251 43.407 40.1764 43.4217 40.1336 43.4476C40.0908 43.4735 40.0553 43.5099 40.0303 43.5532C40.021 43.6031 40.0247 43.6545 40.0409 43.7025C40.0571 43.7506 40.0854 43.7937 40.123 43.8277C43.4498 46.3751 47.0688 48.5163 50.9032 50.206C50.9032 50.206 56.2172 52.0082 60.8007 44.1132ZM35.3875 37.6459L35.4171 37.7052C35.5989 37.7979 35.7212 37.5828 35.7212 37.5828C37.6941 34.7311 46.531 21.5814 48.3518 13.5639C48.8857 11.4211 48.8857 9.18008 48.3518 7.03728C47.8578 5.48966 46.9764 4.09402 45.7912 2.98287C44.6061 1.87173 43.1566 1.08198 41.5804 0.688614C41.5804 0.688614 40.0303 0.295531 38.3616 0.0507812C38.3616 0.0507812 32.2873 7.88649 35.2354 37.4308C35.2313 37.4788 35.2443 37.5268 35.2721 37.5662C35.2999 37.6055 35.3408 37.6338 35.3875 37.6459ZM31.2749 37.6459C31.3973 37.7979 31.516 37.7349 31.516 37.7349C31.5717 37.7257 31.6219 37.6957 31.6563 37.651C31.6907 37.6062 31.7069 37.55 31.7014 37.4938C34.6124 7.94582 28.5827 0.124948 28.5827 0.124948L28.6161 0.0952816C27.7335 0.184282 25.3045 0.733115 25.3045 0.733115C23.7394 1.13082 22.3015 1.92121 21.127 3.02953C19.9525 4.13785 19.0802 5.52747 18.5924 7.06695C18.0196 9.2048 18.0196 11.4558 18.5924 13.5936C20.4169 21.6333 29.3132 34.8832 31.2749 37.6459ZM7.72332 41.0167C8.97107 41.5197 10.2953 41.8069 11.6393 41.8659C11.9434 41.9253 23.8471 41.8659 27.0363 41.8659C27.155 41.8659 27.2477 41.7139 27.2477 41.7139V41.7436C27.3404 41.5915 27.1884 41.4395 27.1884 41.4395C18.1697 35.3541 0.70715 26.0165 0.70715 26.0165C-0.238142 28.9406 -0.0397983 32.1143 1.2622 34.8979C2.5642 37.6815 4.87303 39.868 7.72332 41.0167ZM26.6729 43.416L6.17323 44.1132C8.39823 48.0922 12.1548 51.159 16.0448 50.2171C19.8928 48.536 23.5226 46.3942 26.8546 43.8388C27.0067 43.6867 26.9436 43.5644 26.9436 43.5644V43.5977C26.9212 43.5443 26.8836 43.4987 26.8355 43.4664C26.7873 43.4341 26.7308 43.4166 26.6729 43.416ZM8.28327 26.7137C14.5269 31.7118 21.3349 35.9609 28.5679 39.374C28.6012 39.374 28.7533 39.437 28.8423 39.3146V39.3443C28.8778 39.3166 28.903 39.2778 28.9138 39.2341C28.9246 39.1903 28.9203 39.1442 28.9016 39.1032C23.908 28.3635 17.6765 18.2441 10.334 8.95078C10.334 8.95078 4.50448 14.4762 4.94578 20.0313C5.13141 22.6123 6.33135 25.0148 8.28327 26.7137ZM64.3236 56.0763H66.8749V66.8267H64.3236V56.0763ZM52.6349 61.6833C52.5663 62.4795 52.6937 63.2804 53.0059 64.016C53.3181 64.7516 53.8057 65.3996 54.4261 65.9034C55.4789 66.6386 56.7602 66.9727 58.038 66.8453H62.1691V64.9614H58.1604C56.2469 64.9614 55.3977 64.2643 55.3977 62.3211H62.1691V60.4373H55.4384V60.5003L55.4088 60.4373H55.4496C55.4356 60.0888 55.499 59.7415 55.6351 59.4205C55.7713 59.0994 55.9769 58.8124 56.2371 58.5802C56.4973 58.348 56.8057 58.1763 57.1402 58.0774C57.4746 57.9785 57.8268 57.9549 58.1715 58.0083H62.1802V56.1208H58.101C54.363 56.1208 52.6349 57.8971 52.6349 61.6833ZM55.4273 60.5115V60.4484H55.3865L55.4273 60.5115ZM47.1058 64.3347L44.4952 56.0763H41.6101L39.3331 64.3347L36.6594 56.0763H34.0191L37.9054 66.8267H40.8832L43.0378 58.8093L45.5298 66.8267H48.5039L52.1158 56.0763H49.5978L47.1058 64.3347ZM30.7632 56.1616H28.1674L23.2464 66.9157H25.8422L26.8769 64.3644H31.9165L32.9808 66.9157H35.7101L30.7632 56.1616ZM27.6667 62.4657L29.3652 58.3347L31.1266 62.4657H27.6667ZM20.1499 62.514C20.1499 64.4275 19.5418 65.2173 17.5541 65.2173C15.5664 65.2173 14.9583 64.3978 14.9583 62.514V56.0763H12.4885V62.5733C12.3428 63.5851 12.5824 64.6148 13.1597 65.4584C13.7341 66.0126 14.4239 66.433 15.1798 66.6894C15.9356 66.9459 16.7388 67.032 17.5319 66.9417C18.3249 67.032 19.1281 66.9459 19.884 66.6894C20.6398 66.433 21.3296 66.0126 21.904 65.4584C22.4713 64.6098 22.7184 63.5872 22.6011 62.5733V56.0763H20.1499V62.514ZM8.05707 60.4484H2.59098V56.0763H0.132359V66.8267H2.59098V62.3322H8.05707V66.8267H10.486V56.0763H8.05707V60.4484Z" fill="#454545"/>
</svg>
