<svg width="340" height="340" viewBox="0 0 340 340" fill="none" xmlns="http://www.w3.org/2000/svg">
<path d="M92.354 22.9278C87.1676 22.9278 82.1935 24.9938 78.5261 28.6714C74.8587 32.3489 72.7984 37.3367 72.7984 42.5375C72.7984 47.7383 74.8587 52.7261 78.5261 56.4036C82.1935 60.0811 87.1676 62.1471 92.354 62.1471C97.5405 62.1471 102.515 60.0811 106.182 56.4036C109.849 52.7261 111.91 47.7383 111.91 42.5375C111.91 37.3367 109.849 32.3489 106.182 28.6714C102.515 24.9938 97.5405 22.9278 92.354 22.9278ZM53.2428 42.5375C53.2446 35.2026 55.2977 28.0152 59.1688 21.7917C63.0399 15.5681 68.5739 10.5579 75.1423 7.32998C81.7106 4.1021 89.05 2.78594 96.3269 3.531C103.604 4.27607 110.526 7.05249 116.309 11.5449C122.091 16.0374 126.501 22.0657 129.038 28.9454C131.575 35.825 132.137 43.2802 130.66 50.4641C129.184 57.648 125.728 64.2728 120.685 69.5859C115.642 74.8991 109.214 78.6877 102.132 80.5214V171.393C105.991 167.51 110.215 164.196 114.804 161.45C132.482 150.783 155.323 147.626 175.817 144.782L179.005 144.351C201.494 141.213 221.089 138.017 235.384 128.33C247.313 120.231 256.7 106.7 258.323 80.4626C249.122 78.0186 241.125 72.2937 235.832 64.3609C230.538 56.4281 228.311 46.8319 229.569 37.3707C230.826 27.9095 235.481 19.2327 242.661 12.9665C249.841 6.70037 259.053 3.2749 268.572 3.33211C278.09 3.38932 287.261 6.92528 294.366 13.2773C301.47 19.6294 306.021 28.3614 307.165 37.8371C308.309 47.3127 305.968 56.8815 300.58 64.7501C295.192 72.6187 287.128 78.247 277.898 80.5802C276.138 112.25 264.561 132.212 246.335 144.567C227.62 157.254 203.235 160.784 181.704 163.784L180.413 163.96C158.237 167.039 139.033 169.726 124.895 178.256C117.922 182.322 112.277 188.33 108.644 195.552C104.674 203.356 102.132 213.985 102.132 228.829V259.479C111.349 261.866 119.382 267.541 124.725 275.441C130.067 283.342 132.353 292.925 131.154 302.395C129.954 311.865 125.352 320.57 118.209 326.881C111.066 333.191 101.873 336.672 92.354 336.672C82.8346 336.672 73.642 333.191 66.4992 326.881C59.3565 320.57 54.754 311.865 53.5545 302.395C52.355 292.925 54.6409 283.342 59.9836 275.441C65.3263 267.541 73.3591 261.866 82.5762 259.479V80.5214C74.1791 78.3473 66.7408 73.4362 61.4308 66.5603C56.1209 59.6845 53.2406 51.234 53.2428 42.5375ZM268.355 22.9278C263.168 22.9278 258.194 24.9938 254.527 28.6714C250.859 32.3489 248.799 37.3367 248.799 42.5375C248.799 47.7383 250.859 52.7261 254.527 56.4036C258.194 60.0811 263.168 62.1471 268.355 62.1471C273.541 62.1471 278.515 60.0811 282.183 56.4036C285.85 52.7261 287.91 47.7383 287.91 42.5375C287.91 37.3367 285.85 32.3489 282.183 28.6714C278.515 24.9938 273.541 22.9278 268.355 22.9278ZM92.354 277.853C87.1676 277.853 82.1935 279.919 78.5261 283.597C74.8587 287.274 72.7984 292.262 72.7984 297.463C72.7984 302.664 74.8587 307.652 78.5261 311.329C82.1935 315.007 87.1676 317.073 92.354 317.073C97.5405 317.073 102.515 315.007 106.182 311.329C109.849 307.652 111.91 302.664 111.91 297.463C111.91 292.262 109.849 287.274 106.182 283.597C102.515 279.919 97.5405 277.853 92.354 277.853Z" fill="white"/>
<g clip-path="url(#clip0_0_1)">
<path d="M92.354 22.9269C87.1676 22.9269 82.1935 24.9929 78.5261 28.6704C74.8587 32.3479 72.7984 37.3357 72.7984 42.5365C72.7984 47.7373 74.8587 52.7251 78.5261 56.4026C82.1935 60.0802 87.1676 62.1462 92.354 62.1462C97.5405 62.1462 102.515 60.0802 106.182 56.4026C109.849 52.7251 111.91 47.7373 111.91 42.5365C111.91 37.3357 109.849 32.3479 106.182 28.6704C102.515 24.9929 97.5405 22.9269 92.354 22.9269ZM53.2428 42.5365C53.2446 35.2016 55.2977 28.0142 59.1688 21.7907C63.0399 15.5671 68.5739 10.5569 75.1423 7.32901C81.7106 4.10112 89.05 2.78496 96.3269 3.53003C103.604 4.27509 110.526 7.05151 116.309 11.5439C122.091 16.0364 126.501 22.0648 129.038 28.9444C131.575 35.824 132.137 43.2792 130.66 50.4631C129.184 57.6471 125.728 64.2718 120.685 69.585C115.642 74.8981 109.214 78.6867 102.132 80.5204V171.392C105.991 167.509 110.215 164.195 114.804 161.449C132.482 150.782 155.323 147.625 175.817 144.781L179.005 144.35C201.494 141.212 221.089 138.016 235.384 128.329C247.313 120.23 256.7 106.699 258.323 80.4616C249.122 78.0176 241.125 72.2928 235.832 64.36C230.538 56.4272 228.311 46.8309 229.569 37.3697C230.826 27.9085 235.481 19.2317 242.661 12.9656C249.841 6.69939 259.053 3.27392 268.572 3.33113C278.09 3.38835 287.261 6.92431 294.366 13.2763C301.47 19.6284 306.021 28.3605 307.165 37.8361C308.309 47.3118 305.968 56.8805 300.58 64.7491C295.192 72.6177 287.128 78.246 277.898 80.5792C276.138 112.249 264.561 132.211 246.335 144.566C227.62 157.253 203.235 160.783 181.704 163.783L180.413 163.96C158.237 167.038 139.033 169.725 124.895 178.255C117.922 182.321 112.277 188.329 108.644 195.551C104.674 203.355 102.132 213.984 102.132 228.828V259.478C111.349 261.865 119.382 267.54 124.725 275.44C130.067 283.341 132.353 292.924 131.154 302.394C129.954 311.864 125.352 320.569 118.209 326.88C111.066 333.19 101.873 336.671 92.354 336.671C82.8346 336.671 73.642 333.19 66.4992 326.88C59.3565 320.569 54.754 311.864 53.5545 302.394C52.355 292.924 54.6409 283.341 59.9836 275.44C65.3263 267.54 73.3591 261.865 82.5762 259.478V80.5204C74.1791 78.3463 66.7408 73.4352 61.4308 66.5594C56.1209 59.6835 53.2406 51.233 53.2428 42.5365ZM268.355 22.9269C263.168 22.9269 258.194 24.9929 254.527 28.6704C250.859 32.3479 248.799 37.3357 248.799 42.5365C248.799 47.7373 250.859 52.7251 254.527 56.4026C258.194 60.0802 263.168 62.1462 268.355 62.1462C273.541 62.1462 278.515 60.0802 282.183 56.4026C285.85 52.7251 287.91 47.7373 287.91 42.5365C287.91 37.3357 285.85 32.3479 282.183 28.6704C278.515 24.9929 273.541 22.9269 268.355 22.9269ZM92.354 277.852C87.1676 277.852 82.1935 279.918 78.5261 283.596C74.8587 287.273 72.7984 292.261 72.7984 297.462C72.7984 302.663 74.8587 307.651 78.5261 311.328C82.1935 315.006 87.1676 317.072 92.354 317.072C97.5405 317.072 102.515 315.006 106.182 311.328C109.849 307.651 111.91 302.663 111.91 297.462C111.91 292.261 109.849 287.273 106.182 283.596C102.515 279.918 97.5405 277.852 92.354 277.852Z" fill="#E3AF59"/>
</g>
<defs>
<clipPath id="clip0_0_1">
<rect width="186" height="186" fill="white" transform="translate(154 77)"/>
</clipPath>
</defs>
</svg>
